<?xml version="1.0" encoding="UTF-8"?>
<svg id="Layer_2" data-name="Layer 2" xmlns="http://www.w3.org/2000/svg" viewBox="0 0 969.74 145.05">
  <g id="Layer_1-2" data-name="Layer 1">
    <path d="M0,2.01h33.04v14.1C35.86,8.26,46.54,0,62.05,0c21.36,0,45.53,15.71,45.53,54.39s-24.18,54.39-45.53,54.39c-15.51,0-26.19-8.26-29.01-16.12v52.38H0V2.01ZM76.56,54.39c0-18.53-11.08-27-22.77-27s-22.16,8.46-22.16,27,10.68,27,22.16,27,22.77-8.46,22.77-27Z"/>
    <path d="M222.64,4.41v104.76h-33.04v-22.16h-1.41c-2.01,10.27-12.09,24.18-32.64,24.18s-35.86-13.5-35.86-39.89V4.41h33.04v58.83c0,14.91,6.85,20.75,17.33,20.75s19.54-5.84,19.54-20.75V4.41h33.04Z"/>
    <path d="M306.28,4.62v27.8c-3.43-.4-5.84-.6-8.46-.6-14.5,0-30.02,7.05-30.02,33.44v43.92h-33.04V4.42h33.04v25.99h.81c3.83-16.52,13.7-26.79,29.61-26.79,2.22,0,4.84.2,8.06,1.01Z"/>
    <path d="M389.91,4.78v27.8c-3.43-.4-5.84-.6-8.46-.6-14.5,0-30.02,7.05-30.02,33.44v43.92h-33.04V4.58h33.04v25.99h.81c3.83-16.52,13.7-26.79,29.61-26.79,2.22,0,4.84.2,8.06,1.01Z"/>
    <path d="M763.78,41.84v66.89h-33.04v-58.83c0-14.91-6.45-20.75-15.31-20.75s-16.52,5.84-16.52,20.75v58.83h-33.04v-58.83c0-14.91-6.25-20.75-15.31-20.75s-16.32,5.84-16.32,20.75v58.83h-33.04V3.97h33.04v22.16h1.21c1.61-10.27,12.69-24.17,30.02-24.17,14.5,0,26.59,8.06,31.23,23.97h.2c1.81-10.27,13.7-23.97,32.43-23.97,19.94,0,34.45,13.5,34.45,39.89Z"/>
    <path d="M874.52,65.78h-72.32c1.81,16.32,10.48,22.16,24.18,22.16,12.69,0,16.12-5.64,18.33-12.89h29.01c-4.84,24.18-23.17,37.47-49.36,37.47s-53.39-14.1-53.39-54.8,25.18-54.8,53.39-54.8,50.77,14.3,50.77,56.01c0,3.22-.2,4.43-.6,6.85ZM843.9,48.25c-.6-10.48-5.24-20.35-20.35-20.35-12.89,0-19.94,7.25-21.36,20.35h41.7Z"/>
    <path d="M486.56,48.02c.21-6.53,4.83-14.94,10.72-23.54,14.42-21.05,50.78-30.44,75.45-12.46,23.84,17.37,29.19,54.75,8.11,80.8-3.83-3.96-8.3-7.5-13.4-9.85,1.07-6.71,9.76.54,14.99,1.19.75.09,2.36.95,2.54-.72.36-3.32-12.48-6.43-12.71-8.04,4.42-6.36.32-12.74.91-18.58.59-5.81,10.76-20.1,5.83-24.92-3.31-3.24-7.81,2.64-10.6,4.1-12.11,6.3-31.45,2.47-42.51-4.59-5.38-3.43-12.07-13.15-19.16-6.35-3.43,3.3-1.53,7.98-4.24,17.52-.77,2.69-1.08,3.31-2.05,4.4-2.86,3.26-8.39,2.38-10.67,1.94"/>
    <path d="M579.46,93.07c.97,1.01-4.53,4.96-5.63,5.74-9.76,6.88-23.42,10.15-35.39,9.37-2.66-.17-11.7-1.53-13.73-2.59-4.55-2.36-5.65-12.54-1.66-16.58,7.18-7.27,17.88,2.32,26.37,2.34,6.97.01,11.72-5.6,14.71-5.46,4.31.21,10.43,7.4,15.34,7.18Z"/>
    <path d="M544.33,67.44c-9.38,1.26-17.88-3.11-19.41-12.53,2.84-2.43,20.01,7.16,19.41,12.53Z"/>
    <path d="M560.31,72.42c-3.27-2.83,10.93-23.5,9.07-6.05-.48,4.55-4.66,6.65-9.07,6.05Z"/>
    <path d="M550.49,73.85c5.58-1.73,13.67,3.11,7.05,5.06-5.15,1.52-11.37-3.72-7.05-5.06Z"/>
    <path d="M389.91,93.24l14.5-21.36c12.69,7.45,26.59,11.28,39.49,11.28,8.87,0,12.49-2.42,12.49-6.04,0-4.84-5.24-5.64-22.16-9.27-27.8-6.04-37.87-16.52-37.87-32.23,0-19.74,18.12-37.63,47.95-32.64,18.91,3.17,39.4,29.26,53.09,20.87,1.47-.9,2.09-3.56,1.94,1.2-.24,7.62-5.8,15.81-8.69,23.71-2.85,2.37-39.09-20.4-49.56-20.4-6.45,0-10.48,2.01-10.48,5.64,0,4.43,5.24,4.83,20.95,8.46,30.22,6.85,39.08,15.92,39.08,32.64,0,18.94-17.93,33.44-51.57,33.44-17.33,0-36.26-6.85-49.16-15.31Z"/>
    <g>
      <path d="M875.41,6.47h40.27v10.59h-13.51v32.28h-13.25V17.05h-13.51V6.47Z"/>
      <path d="M921.52,6.47h17.42l6.72,26.08,6.67-26.08h17.41v42.87h-10.85V16.65l-8.36,32.69h-9.82l-8.34-32.69v32.69h-10.85V6.47Z"/>
    </g>
  </g>
</svg>